<?xml version="1.0" standalone="no"?>
<!DOCTYPE svg PUBLIC "-//W3C//DTD SVG 20010904//EN"
 "http://www.w3.org/TR/2001/REC-SVG-20010904/DTD/svg10.dtd">
<svg version="1.0" xmlns="http://www.w3.org/2000/svg"
 width="512.000000pt" height="512.000000pt" viewBox="0 0 512.000000 512.000000"
 preserveAspectRatio="xMidYMid meet">
<metadata>
Created by potrace 1.14, written by Peter Selinger 2001-2017
</metadata>
<g transform="translate(0.000000,512.000000) scale(0.100000,-0.100000)"
fill="#000000" stroke="none">
<path d="M2009 5101 c-52 -42 -16 -130 53 -131 63 0 92 89 42 129 -33 26 -65
27 -95 2z m66 -56 c0 -27 -31 -32 -38 -6 -6 24 1 33 23 29 8 -2 15 -12 15 -23z"/>
<path d="M4477 4533 c-4 -3 -7 -18 -7 -33 0 -19 -5 -27 -17 -27 -36 0 -43 -3
-43 -22 0 -13 9 -20 30 -24 23 -5 30 -12 30 -30 0 -30 6 -36 31 -30 13 4 19
14 19 35 0 22 4 29 14 25 19 -8 50 16 44 34 -3 8 -16 14 -29 14 -18 0 -25 6
-28 25 -4 32 -28 50 -44 33z"/>
<path d="M2485 4409 c-274 -36 -493 -107 -725 -237 -138 -77 -275 -177 -413
-304 -23 -20 -43 -35 -45 -33 -2 2 -4 21 -4 41 0 27 6 43 21 55 59 48 56 125
-5 154 -50 24 -96 9 -120 -37 -20 -39 -10 -83 26 -109 26 -20 28 -26 29 -93 1
-72 1 -73 -41 -119 -37 -39 -47 -45 -71 -40 -17 3 -29 14 -33 28 -16 66 -103
90 -151 42 -79 -79 40 -204 121 -128 17 16 29 20 40 14 13 -7 9 -17 -27 -63
-78 -101 -227 -341 -227 -366 0 -5 -9 -22 -20 -39 l-20 -30 2 73 c1 59 5 75
20 83 60 32 54 136 -10 160 -61 24 -121 -17 -122 -82 0 -34 28 -79 50 -79 15
0 12 -288 -3 -330 -19 -55 -22 -57 -91 -59 -56 -2 -65 1 -71 18 -8 25 -68 53
-99 45 -29 -7 -66 -39 -67 -59 -1 -8 -2 -21 -3 -27 -3 -21 23 -67 43 -78 11
-5 36 -10 55 -10 28 0 40 7 58 30 20 27 27 30 80 30 32 0 58 -2 58 -4 0 -3 -7
-33 -15 -68 -19 -85 -29 -165 -34 -264 -1 -31 -52 -26 -84 8 -50 54 -127 44
-153 -19 -12 -28 -12 -38 0 -67 27 -64 98 -77 145 -25 19 20 40 32 59 33 34 2
34 2 47 -99 20 -160 76 -293 162 -385 93 -101 201 -140 373 -136 105 3 105 3
132 -26 16 -17 28 -34 28 -39 0 -10 48 -90 125 -209 125 -192 322 -406 485
-525 71 -53 137 -94 229 -143 73 -39 73 -40 50 -55 -20 -11 -73 -14 -293 -13
-276 2 -316 -3 -289 -36 10 -11 82 -14 415 -13 274 1 422 -3 463 -11 136 -27
217 -35 340 -35 124 0 171 5 350 34 44 7 115 12 158 11 66 -2 79 1 87 17 8 13
6 20 -6 27 -12 7 -5 13 33 27 419 155 818 559 926 935 35 121 49 287 34 390
-12 77 -48 200 -73 249 -17 33 -9 37 89 35 67 -1 75 -4 104 -33 40 -40 88 -42
127 -6 50 46 27 134 -40 151 -29 7 -95 -22 -101 -44 -4 -17 -16 -19 -111 -19
-67 -1 -110 3 -116 11 -6 6 -28 34 -49 62 -20 28 -58 70 -83 93 l-46 41 25 20
c46 36 42 111 -9 145 -20 13 -22 23 -23 94 l0 79 57 4 c31 1 73 1 92 -2 l35
-5 1 -73 c2 -103 12 -112 126 -112 87 0 90 -1 115 -30 73 -87 204 23 133 112
-36 47 -129 37 -146 -14 -5 -15 -17 -18 -89 -18 -58 0 -84 4 -87 13 -2 6 -3
91 -3 187 l1 175 33 33 c30 29 33 38 28 72 -7 51 -28 71 -81 77 -38 5 -45 2
-70 -28 -35 -42 -31 -92 11 -128 26 -22 28 -31 30 -100 2 -120 31 -108 -277
-109 -149 0 -270 4 -270 8 0 5 26 39 58 76 l57 67 5 176 5 175 74 23 c63 19
76 20 85 8 23 -29 66 -37 105 -18 85 42 58 162 -39 165 -34 1 -90 -44 -90 -72
0 -11 -15 -20 -47 -28 -27 -6 -58 -14 -70 -18 l-23 -6 0 130 c0 123 1 132 21
142 32 18 51 72 38 109 -28 81 -146 75 -169 -8 -8 -28 -6 -41 11 -67 10 -18
26 -35 34 -38 13 -5 15 -52 15 -327 l0 -321 -62 -74 c-34 -40 -64 -71 -67 -69
-12 12 -28 182 -29 292 0 67 -3 139 -6 160 -3 21 -8 70 -11 108 -24 263 -109
429 -276 541 -118 78 -276 133 -456 160 -26 3 -57 9 -68 11 -37 8 -369 10
-430 2z m1645 -1442 c0 -79 -1 -84 -25 -97 -14 -8 -28 -25 -31 -39 -12 -54
-11 -54 -76 -19 -74 39 -144 106 -181 172 -15 27 -27 52 -27 57 0 5 77 9 170
9 l170 0 0 -83z"/>
<path d="M64 3741 c-5 -24 -12 -31 -29 -31 -23 0 -40 -24 -29 -41 3 -5 16 -9
30 -9 19 0 24 -5 24 -25 0 -14 8 -29 20 -35 21 -11 25 -7 32 35 2 11 10 21 18
21 8 1 21 2 28 3 8 1 12 10 10 24 -2 16 -10 22 -28 22 -20 0 -26 6 -30 30 -7
42 -38 46 -46 6z"/>
<path d="M5015 1368 c-48 -26 -59 -78 -25 -118 40 -46 115 -24 126 36 5 30 3
40 -17 59 -31 29 -59 37 -84 23z m52 -64 c7 -18 -14 -35 -34 -27 -7 3 -13 14
-13 24 0 24 38 26 47 3z"/>
<path d="M850 1152 c-23 -7 -50 -44 -50 -69 0 -25 37 -71 60 -74 52 -6 90 24
90 70 0 51 -52 89 -100 73z m50 -73 c0 -12 -7 -19 -19 -19 -26 0 -36 17 -21
35 15 18 40 8 40 -16z"/>
<path d="M3159 160 c-1 -5 -3 -14 -4 -20 -1 -5 -3 -14 -4 -20 0 -5 -12 -10
-25 -10 -27 0 -40 -22 -23 -39 6 -6 21 -11 33 -11 17 0 21 -5 19 -24 -3 -28
20 -42 41 -26 7 6 11 20 9 31 -3 14 2 19 19 19 12 0 27 5 33 11 17 17 4 39
-23 39 -13 0 -25 5 -25 10 -1 6 -3 15 -4 20 -1 6 -3 15 -4 20 0 6 -10 10 -21
10 -11 0 -21 -4 -21 -10z"/>
</g>
</svg>
